<svg xmlns="http://www.w3.org/2000/svg" xmlns:xlink="http://www.w3.org/1999/xlink" width="100%" zoomAndPan="magnify" viewBox="100 85 200 200" height="100%" preserveAspectRatio="xMidYMid meet" version="1.0"><defs><g/><clipPath id="c4e1f13474"><path d="M 18.75 127 L 139.566406 127 L 139.566406 207 L 18.75 207 Z M 18.75 127 " clip-rule="nonzero"/></clipPath></defs><g fill="#744518" fill-opacity="1"><g transform="translate(67.242466, 207.707669)"><g><path d="M 2.453125 0 L 28.953125 0 L 29.3125 -7.640625 L 28.625 -7.75 C 26.640625 -2.40625 23.03125 -0.84375 17.75 -0.84375 L 12.71875 -0.84375 C 11.046875 -0.84375 10.109375 -1.78125 10.109375 -3.453125 L 10.109375 -19.265625 L 15.125 -19.265625 C 21.515625 -19.265625 23.34375 -18 24.1875 -15.28125 L 24.921875 -15.28125 L 24.921875 -24.078125 L 24.1875 -24.078125 C 23.34375 -21.359375 21.515625 -20.09375 15.125 -20.09375 L 10.109375 -20.09375 L 10.109375 -35.796875 L 16.234375 -35.796875 C 22.09375 -35.796875 25.390625 -34.234375 27.484375 -29.109375 L 28.15625 -29.265625 L 27.578125 -36.640625 L 2.453125 -36.640625 L 2.453125 -35.90625 C 4.1875 -35.328125 4.546875 -33.765625 4.546875 -30 L 4.546875 -6.640625 C 4.546875 -2.875 4.1875 -1.3125 2.453125 -0.734375 Z M 2.453125 0 "/></g></g></g><g fill="#744518" fill-opacity="1"><g transform="translate(100.637699, 207.707669)"><g><path d="M 30.046875 0.421875 L 30.71875 0.421875 L 30.71875 -30 C 30.71875 -33.765625 31.09375 -35.328125 32.8125 -35.90625 L 32.8125 -36.640625 L 25.75 -36.640625 L 25.75 -35.90625 C 28.46875 -35.078125 29.734375 -33.234375 29.734375 -26.859375 L 29.734375 -9.109375 L 7.75 -36.640625 L 1.828125 -36.640625 L 1.828125 -35.90625 C 4.078125 -35.328125 4.546875 -33.765625 4.546875 -30 L 4.546875 -6.640625 C 4.546875 -2.875 4.1875 -1.3125 2.453125 -0.734375 L 2.453125 0 L 9.46875 0 L 9.46875 -0.734375 C 6.75 -1.578125 5.5 -3.40625 5.5 -9.78125 L 5.5 -30.5625 Z M 30.046875 0.421875 "/></g></g></g><g fill="#744518" fill-opacity="1"><g transform="translate(137.539934, 207.707669)"><g><path d="M 2.453125 0 L 28.953125 0 L 29.3125 -7.640625 L 28.625 -7.75 C 26.640625 -2.40625 23.03125 -0.84375 17.75 -0.84375 L 12.71875 -0.84375 C 11.046875 -0.84375 10.109375 -1.78125 10.109375 -3.453125 L 10.109375 -19.265625 L 15.125 -19.265625 C 21.515625 -19.265625 23.34375 -18 24.1875 -15.28125 L 24.921875 -15.28125 L 24.921875 -24.078125 L 24.1875 -24.078125 C 23.34375 -21.359375 21.515625 -20.09375 15.125 -20.09375 L 10.109375 -20.09375 L 10.109375 -35.796875 L 16.234375 -35.796875 C 22.09375 -35.796875 25.390625 -34.234375 27.484375 -29.109375 L 28.15625 -29.265625 L 27.578125 -36.640625 L 2.453125 -36.640625 L 2.453125 -35.90625 C 4.1875 -35.328125 4.546875 -33.765625 4.546875 -30 L 4.546875 -6.640625 C 4.546875 -2.875 4.1875 -1.3125 2.453125 -0.734375 Z M 2.453125 0 "/></g></g></g><g fill="#744518" fill-opacity="1"><g transform="translate(170.935164, 207.707669)"><g><path d="M 2.453125 0 L 28.953125 0 L 29.3125 -7.640625 L 28.625 -7.75 C 26.640625 -2.40625 23.03125 -0.84375 17.75 -0.84375 L 12.71875 -0.84375 C 11.046875 -0.84375 10.109375 -1.78125 10.109375 -3.453125 L 10.109375 -19.265625 L 15.125 -19.265625 C 21.515625 -19.265625 23.34375 -18 24.1875 -15.28125 L 24.921875 -15.28125 L 24.921875 -24.078125 L 24.1875 -24.078125 C 23.34375 -21.359375 21.515625 -20.09375 15.125 -20.09375 L 10.109375 -20.09375 L 10.109375 -35.796875 L 16.234375 -35.796875 C 22.09375 -35.796875 25.390625 -34.234375 27.484375 -29.109375 L 28.15625 -29.265625 L 27.578125 -36.640625 L 2.453125 -36.640625 L 2.453125 -35.90625 C 4.1875 -35.328125 4.546875 -33.765625 4.546875 -30 L 4.546875 -6.640625 C 4.546875 -2.875 4.1875 -1.3125 2.453125 -0.734375 Z M 2.453125 0 "/></g></g></g><g fill="#744518" fill-opacity="1"><g transform="translate(204.3304, 207.707669)"><g><path d="M 29.109375 0.359375 C 30 0.359375 31.671875 0.3125 32.875 0 L 32.875 -0.734375 C 32.609375 -0.6875 32.34375 -0.6875 32.09375 -0.6875 C 30.15625 -0.6875 29.578125 -1.9375 26.796875 -8.90625 C 24.03125 -15.859375 22.875 -18.328125 16.953125 -19 C 23.921875 -19.84375 27.21875 -23.453125 27.21875 -28.265625 C 27.21875 -32.5 24.859375 -36.640625 13.453125 -36.640625 L 2.453125 -36.640625 L 2.453125 -35.90625 C 4.1875 -35.328125 4.546875 -33.765625 4.546875 -30 L 4.546875 -6.640625 C 4.546875 -2.875 4.1875 -1.3125 2.453125 -0.734375 L 2.453125 0 L 12.203125 0 L 12.203125 -0.734375 C 10.46875 -1.3125 10.109375 -2.875 10.109375 -6.640625 L 10.109375 -18.796875 L 13.1875 -18.796875 C 17.796875 -18.796875 18.0625 -16.234375 21.203125 -8.578125 C 23.71875 -2.453125 24.765625 0.359375 29.109375 0.359375 Z M 10.109375 -19.625 L 10.109375 -35.640625 C 10.890625 -35.75 11.671875 -35.796875 12.40625 -35.796875 C 18.953125 -35.796875 21.671875 -31.25 21.671875 -27.015625 C 21.671875 -22.984375 19.421875 -19.625 13.453125 -19.625 Z M 10.109375 -19.625 "/></g></g></g><g fill="#744518" fill-opacity="1"><g transform="translate(238.929535, 207.707669)"><g><path d="M 2.453125 0 L 12.203125 0 L 12.203125 -0.734375 C 10.46875 -1.3125 10.109375 -2.875 10.109375 -6.640625 L 10.109375 -14.390625 L 12.671875 -14.390625 C 23.390625 -14.390625 28.109375 -19.9375 28.109375 -26.484375 C 28.109375 -30.71875 25.390625 -36.640625 13.453125 -36.640625 L 2.453125 -36.640625 L 2.453125 -35.90625 C 4.1875 -35.328125 4.546875 -33.765625 4.546875 -30 L 4.546875 -6.640625 C 4.546875 -2.875 4.1875 -1.3125 2.453125 -0.734375 Z M 10.109375 -15.234375 L 10.109375 -35.703125 C 10.46875 -35.75 11.203125 -35.796875 11.71875 -35.796875 C 20 -35.796875 22.1875 -29.625 22.1875 -25.125 C 22.1875 -19.203125 19.265625 -15.234375 12.40625 -15.234375 Z M 10.109375 -15.234375 "/></g></g></g><g fill="#744518" fill-opacity="1"><g transform="translate(270.440406, 207.707669)"><g><path d="M 29.109375 0.359375 C 30 0.359375 31.671875 0.3125 32.875 0 L 32.875 -0.734375 C 32.609375 -0.6875 32.34375 -0.6875 32.09375 -0.6875 C 30.15625 -0.6875 29.578125 -1.9375 26.796875 -8.90625 C 24.03125 -15.859375 22.875 -18.328125 16.953125 -19 C 23.921875 -19.84375 27.21875 -23.453125 27.21875 -28.265625 C 27.21875 -32.5 24.859375 -36.640625 13.453125 -36.640625 L 2.453125 -36.640625 L 2.453125 -35.90625 C 4.1875 -35.328125 4.546875 -33.765625 4.546875 -30 L 4.546875 -6.640625 C 4.546875 -2.875 4.1875 -1.3125 2.453125 -0.734375 L 2.453125 0 L 12.203125 0 L 12.203125 -0.734375 C 10.46875 -1.3125 10.109375 -2.875 10.109375 -6.640625 L 10.109375 -18.796875 L 13.1875 -18.796875 C 17.796875 -18.796875 18.0625 -16.234375 21.203125 -8.578125 C 23.71875 -2.453125 24.765625 0.359375 29.109375 0.359375 Z M 10.109375 -19.625 L 10.109375 -35.640625 C 10.890625 -35.75 11.671875 -35.796875 12.40625 -35.796875 C 18.953125 -35.796875 21.671875 -31.25 21.671875 -27.015625 C 21.671875 -22.984375 19.421875 -19.625 13.453125 -19.625 Z M 10.109375 -19.625 "/></g></g></g><g fill="#744518" fill-opacity="1"><g transform="translate(305.03954, 207.707669)"><g><path d="M 21.5625 0.53125 C 30.359375 0.53125 40.25 -5.390625 40.25 -18.15625 C 40.25 -30.984375 30.40625 -37.0625 21.5625 -37.0625 C 10.46875 -37.0625 2.828125 -28.84375 2.828125 -18.484375 C 2.828125 -5.34375 12.671875 0.53125 21.5625 0.53125 Z M 8.265625 -21.671875 C 7.6875 -30.15625 11.71875 -35.703125 18.84375 -35.703125 C 27.90625 -35.703125 34.1875 -25.171875 34.96875 -14.03125 C 35.4375 -7.125 32.5625 -1.09375 24.546875 -1.09375 C 15.65625 -1.09375 9 -11.203125 8.265625 -21.671875 Z M 8.265625 -21.671875 "/></g></g></g><g clip-path="url(#c4e1f13474)"><path fill="#0b5b34" d="M 139.308594 130.394531 C 119.078125 169.082031 94.398438 155.441406 87.148438 151.113281 C 96.738281 142.132812 115.339844 139.234375 119.480469 136.484375 C 104.828125 139.195312 94.398438 141.652344 86.476562 147.671875 C 73.320312 156.714844 61.929688 172.21875 55.851562 185.382812 C 51.324219 195.011719 47.402344 207.378906 47.402344 207.378906 L 36.40625 207.378906 L 18.785156 152.066406 L 30.710938 154.941406 L 42.695312 193.4375 L 47.203125 182.238281 C 50.941406 173.992188 57.425781 163.386719 67.816406 154.941406 C 72.152344 151.414062 77.445312 148.066406 83.351562 145.515625 C 102.375 114.957031 129.492188 131.96875 139.308594 130.394531 " fill-opacity="1" fill-rule="nonzero"/></g></svg>